<svg width="180" height="48" viewBox="0 0 180 48" fill="none" xmlns="http://www.w3.org/2000/svg">
<path d="M21.1763 42.5412C18.4931 42.5058 15.9329 41.9856 13.5089 40.8438C13.1009 40.6506 12.7229 40.3896 12.3029 40.2498C11.9111 40.1154 11.8985 39.8562 11.9441 39.5616C12.2519 37.7496 12.9383 36.1254 14.1521 34.7238C15.4721 33.198 17.1107 32.2032 19.0649 31.7706C21.1163 31.3164 23.1293 31.4754 25.0559 32.3754C26.1263 32.871 27.1001 33.5172 27.9035 34.3836C29.1659 35.7408 30.0113 37.3158 30.3101 39.1614C30.4541 40.0614 30.4463 40.0542 29.6261 40.476C27.8429 41.4006 25.9505 42.0126 23.9693 42.3114C23.0471 42.447 22.1117 42.4638 21.1763 42.5412Z" fill="#EC6608"/>
<path d="M26.1816 23.983C26.2818 26.767 23.9262 29.2072 20.9358 29.1328C18.3852 29.0728 15.7458 26.911 15.9876 23.6026C16.1754 21.01 18.2112 18.8902 21.0738 18.8722C23.919 18.8536 26.2116 21.079 26.1816 23.983Z" fill="#EC6608"/>
<path d="M32.3178 38.8116C31.5732 35.2926 29.703 32.6838 26.6418 30.891C27.2604 30.375 27.9204 30.0156 28.6314 29.7834C30.7566 29.091 32.7444 29.421 34.5642 30.6972C35.6436 31.4496 36.3228 32.5218 36.7764 33.738C36.8136 33.8328 36.78 33.9876 36.72 34.0824C35.8518 35.4396 34.806 36.648 33.6318 37.7424C33.2304 38.1186 32.7768 38.4384 32.3178 38.8116Z" fill="#223C7E"/>
<path d="M30.903 20.5533C32.8158 20.5005 34.3782 22.1547 34.35 24.0021C34.3176 26.1177 32.7594 27.4881 30.873 27.4845C28.9386 27.4773 27.3786 26.0433 27.4086 23.9109C27.4296 22.1421 28.878 20.4951 30.903 20.5533Z" fill="#223C7E"/>
<path d="M40.3501 24.0506C40.4803 25.2212 39.2587 26.5202 37.8919 26.4674C36.5065 26.4146 35.5225 25.3802 35.5183 24.0872C35.5183 22.6844 36.4375 21.6632 37.9201 21.6212C39.2671 21.581 40.4203 22.6898 40.3501 24.0506Z" fill="#223C7E"/>
<path d="M38.133 31.6432C37.3314 30.49 36.456 29.5306 35.3358 28.8028C35.3322 28.7572 35.3286 28.708 35.325 28.6654C35.8944 28.4722 36.4554 28.1944 37.0416 28.1026C37.647 28.0042 38.2811 28.0708 38.9039 28.0858C39.1061 28.0894 39.2837 28.1842 39.1955 28.4374C38.8487 29.5096 38.4882 30.5746 38.133 31.6432Z" fill="#223C7E"/>
<path d="M21.0762 0.191406C12.8682 0.191406 5.6262 4.34701 1.3446 10.6716C2.2008 11.3448 3.0516 12.0216 3.9042 12.6894C7.5762 7.11241 13.896 3.42781 21.078 3.42781C32.4318 3.42781 41.6328 12.6336 41.6328 23.9838C41.6328 35.334 32.4324 44.5416 21.078 44.5416C12.9444 44.5416 5.9112 39.813 2.5818 32.9574C1.7472 33.6432 0.8862 34.35 0 35.0742C3.9876 42.6474 11.9286 47.8092 21.0762 47.8092C34.2264 47.8092 44.8884 37.1484 44.8884 24C44.8884 10.8498 34.227 0.191406 21.0762 0.191406Z" fill="#223C7E"/>
<path d="M65.9849 10.0347C66.2057 10.4871 66.3161 10.9826 66.3161 11.522C66.3161 12.0698 66.2057 12.5673 65.9849 13.016C65.7647 13.4643 65.4341 13.8368 64.9931 14.1332C64.4381 14.5058 63.7805 14.7302 63.0203 14.8059V15.8666H61.6637V14.8059C60.9113 14.7302 60.2573 14.5058 59.7023 14.1332C59.2769 13.8368 58.9499 13.4625 58.7219 13.01C58.4939 12.5577 58.3799 12.062 58.3799 11.522C58.3799 10.9898 58.4921 10.496 58.7165 10.04C58.9409 9.58345 59.2619 9.20725 59.6801 8.91085C60.2279 8.53105 60.8891 8.29525 61.6643 8.20405V7.65625H63.0209V8.20405C63.7733 8.27965 64.4351 8.51605 65.0051 8.91085C65.4377 9.20785 65.7647 9.58225 65.9849 10.0347ZM61.6637 13.4036V9.66385C61.1771 9.74785 60.7931 9.89605 60.5123 10.1084C60.0635 10.4048 59.8391 10.8764 59.8391 11.522C59.8391 12.1682 60.0557 12.6476 60.4889 12.959C60.8003 13.1876 61.1921 13.3358 61.6637 13.4036ZM64.8563 11.522C64.8563 10.8914 64.6355 10.4198 64.1945 10.1084C63.8825 9.88045 63.4913 9.73225 63.0197 9.66385V13.4156C63.4913 13.3394 63.8825 13.1876 64.1945 12.959C64.6355 12.6476 64.8563 12.1682 64.8563 11.522Z" fill="#223C7E"/>
<path d="M73.8876 12.3429C73.986 12.6243 74.0358 12.9086 74.0358 13.1978C74.028 13.4864 73.9734 13.7738 73.8708 14.0588C73.7682 14.3444 73.6254 14.6006 73.443 14.8286C73.2906 15.041 73.1046 15.2241 72.8838 15.3759C72.6636 15.5283 72.4236 15.6458 72.1656 15.7292C71.907 15.8204 71.6298 15.8666 71.3334 15.8666H67.6614V7.65625H73.2258V8.94445H69.03V10.5296H71.3334C71.7588 10.5296 72.162 10.625 72.5418 10.8152C72.9222 11.0048 73.23 11.2598 73.4658 11.579C73.6476 11.807 73.7886 12.0621 73.8876 12.3429ZM72.348 12.3542C72.2184 12.1874 72.0606 12.0561 71.8746 11.9613C71.6886 11.8665 71.5044 11.8184 71.3214 11.8184H69.03V14.5664H71.3214C71.4882 14.5664 71.6616 14.5251 71.8404 14.4411C72.0186 14.3576 72.1692 14.2478 72.2904 14.1104C72.519 13.8446 72.6324 13.5248 72.6324 13.1522C72.633 12.8708 72.5382 12.605 72.348 12.3542Z" fill="#223C7E"/>
<path d="M81.6066 7.65625L78.4254 14.4068C78.2502 14.7716 78.0792 15.0627 77.9124 15.2793C77.7456 15.4959 77.5398 15.6723 77.2968 15.8097C77.1672 15.8775 77.0064 15.9327 76.812 15.9747C76.6182 16.0161 76.4526 16.0371 76.3164 16.0371C76.0344 16.0371 75.7236 15.9801 75.381 15.8661L75.8256 14.6571C75.8862 14.6799 75.9678 14.7027 76.0704 14.7255C76.173 14.7483 76.2552 14.7597 76.3158 14.7597C76.4904 14.7597 76.6344 14.7297 76.749 14.6691C76.8786 14.5929 76.9998 14.4693 77.1138 14.2983C77.2272 14.1273 77.3226 13.9616 77.3988 13.8026L74.5254 7.65625H75.9282L78.0606 12.3663L80.193 7.65625H81.6066Z" fill="#223C7E"/>
<path d="M89.1553 7.65625V15.8666H87.7759V13.004H83.8879V15.8666H82.5193V7.65625H83.8879V11.7159H87.7759V7.65625H89.1553Z" fill="#223C7E"/>
<path d="M101.186 14.5779V16.8699H99.8173V15.866H93.1123V7.65625H94.4809V14.5779H98.9047V7.65625H100.273V14.5779H101.186Z" fill="#223C7E"/>
<path d="M103.865 14.2481C104.002 14.4377 104.187 14.5847 104.419 14.6867C104.65 14.7893 104.899 14.8409 105.165 14.8409C105.553 14.8409 105.882 14.7683 106.152 14.6243C106.422 14.4797 106.678 14.2595 106.921 13.9625L107.925 14.6471C107.637 15.0803 107.265 15.4205 106.813 15.6671C106.36 15.9143 105.834 16.0379 105.234 16.0379C104.763 16.0379 104.312 15.9485 103.882 15.7703C103.453 15.5915 103.105 15.3383 102.839 15.0113C102.596 14.7077 102.412 14.3717 102.286 14.0021C102.16 13.6337 102.098 13.2515 102.098 12.8561C102.098 12.4079 102.16 11.9861 102.286 11.5907C102.412 11.1959 102.596 10.8497 102.839 10.5533C103.113 10.2269 103.453 9.97549 103.86 9.80089C104.266 9.62629 104.701 9.53809 105.165 9.53809C105.622 9.53809 106.053 9.62569 106.459 9.80089C106.866 9.97609 107.21 10.2269 107.491 10.5533C107.986 11.1539 108.232 11.8949 108.232 12.7769C108.232 12.8837 108.225 13.0505 108.21 13.2785H103.512C103.565 13.6817 103.682 14.0051 103.865 14.2481ZM104.419 10.8785C104.187 10.9811 104.002 11.1275 103.865 11.3171C103.713 11.5223 103.607 11.7695 103.546 12.0581H106.785C106.716 11.7767 106.606 11.5301 106.453 11.3171C106.317 11.1275 106.135 10.9805 105.906 10.8785C105.678 10.7759 105.431 10.7243 105.165 10.7243C104.899 10.7243 104.65 10.7759 104.419 10.8785Z" fill="#223C7E"/>
<path d="M114.994 9.70898V15.8668H113.626V13.3468H110.855V15.8668H109.486V9.70898H110.855V11.9668H113.626V9.70898H114.994Z" fill="#223C7E"/>
<path d="M121.573 10.9288H119.509V15.8662H118.141V10.9288H116.078V9.70898H121.574V10.9288H121.573Z" fill="#223C7E"/>
<path d="M128.398 11.5565C128.515 11.9441 128.574 12.3545 128.574 12.7883C128.574 13.7003 128.338 14.4569 127.867 15.0569C127.616 15.3689 127.301 15.6101 126.921 15.7811C126.541 15.9521 126.145 16.0379 125.735 16.0379C125.073 16.0379 124.507 15.8669 124.036 15.5249V18.6041H122.656V9.70909H123.876V10.1765C124.127 9.97129 124.408 9.81409 124.72 9.70309C125.031 9.59329 125.354 9.53809 125.689 9.53809C126.122 9.53809 126.528 9.62209 126.908 9.78889C127.289 9.95629 127.608 10.1999 127.867 10.5191C128.103 10.8227 128.279 11.1683 128.398 11.5565ZM127.115 12.7877C127.115 12.1793 126.994 11.7041 126.751 11.3621C126.484 10.9673 126.062 10.7693 125.485 10.7693C125.249 10.7693 125.03 10.8107 124.829 10.8947C124.628 10.9787 124.459 11.0999 124.322 11.2595C124.169 11.4419 124.058 11.6663 123.985 11.9321C123.913 12.1979 123.877 12.4835 123.877 12.7877C123.877 13.0919 123.914 13.3787 123.99 13.6487C124.066 13.9187 124.177 14.1371 124.321 14.3045C124.609 14.6393 125.012 14.8061 125.53 14.8061C125.788 14.8061 126.026 14.7569 126.242 14.6579C126.458 14.5595 126.635 14.4113 126.773 14.2133C127.001 13.8935 127.115 13.4189 127.115 12.7877Z" fill="#223C7E"/>
<path d="M133.717 15.8665V15.0565C133.421 15.4213 133.104 15.6763 132.765 15.8203C132.427 15.9643 132.011 16.0369 131.516 16.0369C130.901 16.0369 130.408 15.8659 130.04 15.5239C129.671 15.1819 129.487 14.7223 129.487 14.1439C129.487 13.7335 129.572 13.3819 129.743 13.0891C129.914 12.7969 130.19 12.5629 130.57 12.3877C130.859 12.2587 131.203 12.1543 131.602 12.0745C132.002 11.9947 132.49 11.9167 133.067 11.8405L133.546 11.7727C133.508 11.4763 133.379 11.2459 133.159 11.0827C132.938 10.9195 132.638 10.8379 132.257 10.8379C131.62 10.8379 131.087 11.0503 130.661 11.4763L129.851 10.5637C130.186 10.2217 130.559 9.96491 130.969 9.79391C131.38 9.62291 131.847 9.53711 132.371 9.53711C132.691 9.53711 133.008 9.59651 133.324 9.71411C133.639 9.83171 133.907 9.98951 134.128 10.1875C134.652 10.6279 134.915 11.2855 134.915 12.1597V15.8659H133.717V15.8665ZM133.523 13.5691C133.546 13.3825 133.558 13.1455 133.558 12.8563C132.858 12.9781 132.292 13.0885 131.858 13.1875C131.554 13.2487 131.309 13.3495 131.123 13.4893C130.936 13.6303 130.843 13.8145 130.843 14.0425C130.843 14.2861 130.936 14.4871 131.123 14.6473C131.309 14.8069 131.546 14.8861 131.836 14.8861C132.163 14.8861 132.457 14.8141 132.72 14.6701C132.982 14.5255 133.189 14.3317 133.341 14.0881C133.44 13.9285 133.501 13.7557 133.523 13.5691Z" fill="#223C7E"/>
<path d="M141.688 9.70898V15.8668H140.388V10.9294H138.403L138.039 13.8034C137.948 14.5024 137.763 15.0274 137.486 15.3766C137.208 15.7264 136.796 15.901 136.248 15.901C136.111 15.901 135.971 15.8896 135.826 15.8668V14.647C136.085 14.647 136.279 14.6056 136.408 14.5216C136.537 14.4376 136.624 14.3218 136.67 14.1736C136.717 14.0254 136.758 13.8034 136.796 13.507L137.275 9.70959H141.688V9.70898Z" fill="#223C7E"/>
<path d="M144.674 9.70898V11.7616H146.18C146.453 11.7616 146.722 11.8072 146.984 11.899C147.247 11.9896 147.472 12.1312 147.662 12.3208C147.852 12.5032 147.999 12.7276 148.101 12.9934C148.204 13.2592 148.255 13.537 148.255 13.8262C148.255 14.0998 148.204 14.3692 148.101 14.6356C147.998 14.902 147.852 15.1258 147.662 15.3082C147.473 15.4984 147.247 15.6394 146.984 15.73C146.722 15.8212 146.453 15.8674 146.18 15.8674H143.284V9.70898H144.674ZM144.674 14.578H146.134C146.34 14.563 146.511 14.4832 146.647 14.3386C146.791 14.1946 146.864 14.0236 146.864 13.8262C146.864 13.636 146.795 13.4644 146.659 13.3132C146.506 13.1464 146.332 13.0624 146.134 13.0624H144.674V14.578H144.674Z" fill="#223C7E"/>
<path d="M154.846 9.70898V15.8668H153.478V13.3468H150.707V15.8668H149.339V9.70898H150.707V11.9668H153.478V9.70898H154.846Z" fill="#223C7E"/>
<path d="M157.834 9.70898V11.7616H159.191C159.464 11.7616 159.733 11.809 159.995 11.9038C160.258 11.9992 160.48 12.1378 160.662 12.3202C160.859 12.5026 161.009 12.727 161.112 12.9928C161.215 13.2586 161.266 13.5364 161.266 13.8256C161.266 14.0992 161.215 14.3686 161.112 14.635C161.009 14.9014 160.859 15.1252 160.662 15.3076C160.479 15.4906 160.257 15.6292 159.995 15.724C159.733 15.8188 159.464 15.8662 159.191 15.8662H156.443V9.70898H157.834ZM157.834 14.578H159.134C159.346 14.563 159.521 14.4832 159.658 14.3386C159.796 14.2018 159.863 14.0308 159.863 13.8262C159.863 13.6282 159.799 13.4572 159.67 13.3132C159.518 13.1464 159.339 13.0624 159.134 13.0624H157.834V14.578ZM163.285 9.70898V15.8668H161.916V9.70898H163.285Z" fill="#223C7E"/>
<path d="M170.377 15.8666H168.986V11.8868L166.101 15.8666H164.881V9.70939H166.271V13.5746L169.168 9.70939H170.377V15.8666ZM169.51 7.29199C169.51 7.60399 169.432 7.89259 169.276 8.15839C169.12 8.42479 168.91 8.63539 168.643 8.79139C168.377 8.94739 168.088 9.02539 167.777 9.02539C167.465 9.02539 167.176 8.94739 166.91 8.79139C166.645 8.63539 166.435 8.42479 166.283 8.15839C166.131 7.89259 166.055 7.60339 166.055 7.29199H167.127C167.127 7.47439 167.189 7.63039 167.315 7.75939C167.44 7.88839 167.594 7.95319 167.777 7.95319C167.96 7.95319 168.115 7.88899 168.244 7.75939C168.374 7.62979 168.438 7.47439 168.438 7.29199H169.51Z" fill="#223C7E"/>
<path d="M65.2667 20.792V29.0024H63.8873V26.1398H59.9993V29.0024H58.6313V20.792H59.9993V24.8516H63.8873V20.792H65.2667Z" fill="#223C7E"/>
<path d="M73.4543 20.792V29.0024H72.0629V23.21L68.2541 29.0024H66.8633V20.792H68.2541V26.5736L72.0629 20.792H73.4543Z" fill="#223C7E"/>
<path d="M81.6413 20.792V29.0024H80.2499V23.21L76.4411 29.0024H75.0503V20.792H76.4411V26.5736L80.2499 20.792H81.6413Z" fill="#223C7E"/>
<path d="M92.8387 24.8977C92.8387 26.0683 92.5195 27.0493 91.8805 27.8395C91.5385 28.2655 91.1053 28.5943 90.5809 28.8259C90.0559 29.0581 89.4931 29.1739 88.8931 29.1739C88.3075 29.1739 87.7549 29.0611 87.2341 28.8373C86.7133 28.6129 86.2705 28.2805 85.9057 27.8395C85.6165 27.4747 85.3927 27.0601 85.2331 26.5969L86.6011 26.1979C86.6767 26.4943 86.8099 26.7637 87.0001 27.0073C87.2053 27.2887 87.4735 27.5035 87.8041 27.6517C88.1347 27.7999 88.4827 27.8737 88.8475 27.8737C89.2423 27.8737 89.6107 27.8017 89.9533 27.6577C90.2953 27.5131 90.5731 27.2965 90.7861 27.0073C91.0597 26.6431 91.2421 26.1679 91.3333 25.5823H88.5283V24.2137H91.3333C91.2421 23.6215 91.0597 23.1463 90.7861 22.7887C90.5809 22.5073 90.3091 22.2907 89.9707 22.1389C89.6329 21.9865 89.2735 21.9103 88.8931 21.9103C88.5133 21.9103 88.1557 21.9865 87.8215 22.1389C87.4867 22.2907 87.2131 22.5073 87.0007 22.7887C86.8255 23.0011 86.6851 23.2945 86.5789 23.6665L85.1653 23.4277C85.3171 22.8805 85.5643 22.3861 85.9063 21.9451C86.2555 21.5119 86.6911 21.1825 87.2119 20.9587C87.7321 20.7343 88.2931 20.6221 88.8937 20.6221C89.4943 20.6221 90.0565 20.7343 90.5815 20.9587C91.1059 21.1831 91.5391 21.5119 91.8811 21.9451C92.5039 22.7125 92.8231 23.6965 92.8387 24.8977Z" fill="#223C7E"/>
<path d="M99.6917 29.0025H98.3237V24.2133H95.5529V29.0025H94.1843V22.8447H99.6923V29.0025H99.6917Z" fill="#223C7E"/>
<path d="M106.784 29.0025H105.393V25.0227L102.508 29.0025H101.288V22.8447H102.679V26.7099L105.575 22.8447H106.784V29.0025Z" fill="#223C7E"/>
<path d="M113.694 27.7023H114.218V29.7663H112.919V29.0025H109.11V29.7663H107.81V27.7023C108.114 27.7023 108.373 27.5355 108.586 27.2007C108.798 26.8659 108.947 26.3379 109.03 25.6155L109.349 22.8447H113.693V27.7023H113.694ZM112.394 24.0645H110.479L110.285 25.7637C110.186 26.6991 109.988 27.3453 109.692 27.7017H112.394V24.0645H112.394Z" fill="#223C7E"/>
<path d="M117.023 27.3838C117.16 27.5734 117.344 27.7204 117.577 27.8224C117.808 27.925 118.057 27.9766 118.323 27.9766C118.711 27.9766 119.039 27.904 119.31 27.76C119.579 27.6154 119.836 27.3952 120.079 27.0982L121.083 27.7828C120.794 28.216 120.423 28.5562 119.971 28.8028C119.518 29.05 118.992 29.1736 118.391 29.1736C117.92 29.1736 117.47 29.0842 117.04 28.906C116.611 28.7272 116.263 28.474 115.997 28.147C115.754 27.8434 115.57 27.5074 115.444 27.1378C115.318 26.7694 115.256 26.3872 115.256 25.9918C115.256 25.5436 115.318 25.1218 115.444 24.7264C115.57 24.3316 115.754 23.9854 115.997 23.689C116.27 23.3626 116.611 23.1112 117.017 22.9366C117.424 22.762 117.859 22.6738 118.323 22.6738C118.78 22.6738 119.21 22.7614 119.617 22.9366C120.024 23.1118 120.368 23.3626 120.649 23.689C121.144 24.2896 121.39 25.0306 121.39 25.9126C121.39 26.0194 121.382 26.1862 121.367 26.4142H116.67C116.723 26.8168 116.841 27.1402 117.023 27.3838ZM117.577 24.0136C117.344 24.1162 117.16 24.2626 117.023 24.4522C116.871 24.6574 116.765 24.9046 116.704 25.1932H119.942C119.874 24.9118 119.764 24.6652 119.611 24.4522C119.474 24.2626 119.293 24.1156 119.064 24.0136C118.836 23.911 118.589 23.8594 118.323 23.8594C118.057 23.8594 117.808 23.9116 117.577 24.0136Z" fill="#223C7E"/>
<path d="M129.099 22.8447L129.111 29.0025H127.72V25.4217L126.181 27.9081H125.405L123.866 25.4217V29.0025H122.475V22.8447H123.695L125.793 26.2083L127.891 22.8447H129.099Z" fill="#223C7E"/>
<path d="M136.202 29.0025H134.812V25.0227L131.927 29.0025H130.706V22.8447H132.097V26.7099L134.994 22.8447H136.202V29.0025Z" fill="#223C7E"/>
<path d="M139.219 28.9114C138.812 28.7368 138.472 28.4818 138.198 28.1476C137.704 27.5476 137.457 26.8066 137.457 25.9246C137.457 25.0276 137.704 24.2824 138.198 23.689C138.464 23.3626 138.805 23.1112 139.219 22.9366C139.633 22.762 140.068 22.6738 140.524 22.6738C140.988 22.6738 141.423 22.7614 141.83 22.9366C142.237 23.1112 142.577 23.3626 142.85 23.689C143.345 24.2896 143.591 25.0348 143.591 25.9246C143.591 26.3578 143.533 26.7568 143.415 27.1216C143.297 27.4864 143.108 27.829 142.85 28.1476C142.569 28.4824 142.227 28.7368 141.824 28.9114C141.421 29.0866 140.988 29.1742 140.524 29.1742C140.06 29.1736 139.625 29.0866 139.219 28.9114ZM142.144 25.924C142.144 25.3312 142.014 24.8632 141.756 24.5212C141.626 24.3388 141.452 24.2002 141.232 24.1054C141.011 24.0106 140.776 23.9626 140.524 23.9626C140.266 23.9626 140.03 24.0106 139.817 24.1054C139.604 24.2002 139.43 24.3394 139.293 24.5212C139.042 24.8404 138.916 25.3084 138.916 25.924C138.916 26.5324 139.042 26.9956 139.293 27.3148C139.43 27.4972 139.604 27.6376 139.817 27.7366C140.03 27.8356 140.266 27.8848 140.524 27.8848C140.776 27.8848 141.009 27.8356 141.226 27.7366C141.442 27.6376 141.619 27.4972 141.756 27.3148C142.014 26.9728 142.144 26.5096 142.144 25.924Z" fill="#223C7E"/>
<path d="M150.137 22.8447V29.0025H148.837V24.0651H146.852L146.488 26.9391C146.397 27.6381 146.212 28.1631 145.935 28.5123C145.657 28.8621 145.245 29.0367 144.697 29.0367C144.56 29.0367 144.42 29.0253 144.275 29.0025V27.7827C144.534 27.7827 144.728 27.7413 144.857 27.6573C144.986 27.5733 145.073 27.4575 145.12 27.3093C145.166 27.1611 145.207 26.9391 145.245 26.6427L145.724 22.8453H150.137V22.8447Z" fill="#223C7E"/>
<path d="M153.152 28.9114C152.746 28.7368 152.405 28.4818 152.132 28.1476C151.638 27.5476 151.391 26.8066 151.391 25.9246C151.391 25.0276 151.638 24.2824 152.132 23.689C152.398 23.3626 152.738 23.1112 153.152 22.9366C153.566 22.762 154.002 22.6738 154.458 22.6738C154.922 22.6738 155.357 22.7614 155.764 22.9366C156.171 23.1112 156.511 23.3626 156.784 23.689C157.279 24.2896 157.525 25.0348 157.525 25.9246C157.525 26.3578 157.466 26.7568 157.349 27.1216C157.231 27.4864 157.042 27.829 156.784 28.1476C156.503 28.4824 156.161 28.7368 155.758 28.9114C155.355 29.0866 154.922 29.1742 154.458 29.1742C153.994 29.1736 153.559 29.0866 153.152 28.9114ZM156.077 25.924C156.077 25.3312 155.948 24.8632 155.69 24.5212C155.56 24.3388 155.386 24.2002 155.165 24.1054C154.945 24.0106 154.709 23.9626 154.458 23.9626C154.199 23.9626 153.964 24.0106 153.751 24.1054C153.538 24.2002 153.364 24.3394 153.227 24.5212C152.975 24.8404 152.85 25.3084 152.85 25.924C152.85 26.5324 152.975 26.9956 153.227 27.3148C153.364 27.4972 153.538 27.6376 153.751 27.7366C153.964 27.8356 154.199 27.8848 154.458 27.8848C154.709 27.8848 154.943 27.8356 155.159 27.7366C155.376 27.6376 155.553 27.4972 155.69 27.3148C155.948 26.9728 156.077 26.5096 156.077 25.924Z" fill="#223C7E"/>
<path d="M163.17 24.2127H160.148V29.0019H158.78V22.8447H163.17V24.2127Z" fill="#223C7E"/>
<path d="M169.749 29.0025H168.358V25.0227L165.473 29.0025H164.253V22.8447H165.644V26.7099L168.541 22.8447H169.749V29.0025Z" fill="#223C7E"/>
<path d="M176.842 29.0025H175.451V25.0227L172.566 29.0025H171.346V22.8447H172.737V26.7099L175.633 22.8447H176.842V29.0025Z" fill="#223C7E"/>
<path d="M64.8389 35.7365C64.9415 36.0215 64.9967 36.3083 65.0045 36.5975C65.0045 36.8861 64.9547 37.1717 64.8563 37.4531C64.7573 37.7345 64.6169 37.9889 64.4345 38.2163C64.1987 38.5355 63.8909 38.7905 63.5105 38.9801C63.1301 39.1703 62.7275 39.2657 62.3015 39.2657H59.9981V42.1391H58.6301V33.9287H62.3015C62.5979 33.9287 62.8757 33.9743 63.1343 34.0661C63.6815 34.2329 64.1075 34.5329 64.4111 34.9667C64.5941 35.1941 64.7363 35.4509 64.8389 35.7365ZM63.6017 36.6425C63.6017 36.2621 63.4877 35.9429 63.2597 35.6843C63.1379 35.5475 62.9879 35.4377 62.8091 35.3537C62.6303 35.2697 62.4575 35.2283 62.2901 35.2283H59.9981V37.9763H62.2901C62.4725 37.9763 62.6567 37.9289 62.8433 37.8341C63.0299 37.7387 63.1871 37.6079 63.3167 37.4405C63.5069 37.1897 63.6017 36.9239 63.6017 36.6425Z" fill="#223C7E"/>
<path d="M67.4845 42.0472C67.0777 41.8726 66.7375 41.6176 66.4639 41.2834C65.9701 40.6834 65.7229 39.9424 65.7229 39.0604C65.7229 38.1634 65.9701 37.4182 66.4639 36.8248C66.7297 36.4984 67.0705 36.247 67.4845 36.0724C67.8985 35.8978 68.3341 35.8096 68.7901 35.8096C69.2539 35.8096 69.6889 35.8972 70.0963 36.0724C70.5031 36.247 70.8427 36.4984 71.1163 36.8248C71.6107 37.4254 71.8573 38.1706 71.8573 39.0604C71.8573 39.4936 71.7985 39.8926 71.6809 40.2574C71.5627 40.6222 71.3743 40.9648 71.1163 41.2834C70.8349 41.6182 70.4929 41.8726 70.0903 42.0472C69.6871 42.2224 69.2539 42.31 68.7901 42.31C68.3263 42.31 67.8913 42.2224 67.4845 42.0472ZM70.4095 39.0604C70.4095 38.4676 70.2799 37.9996 70.0219 37.6576C69.8923 37.4752 69.7177 37.3366 69.4975 37.2418C69.2773 37.147 69.0415 37.099 68.7901 37.099C68.5315 37.099 68.2963 37.147 68.0833 37.2418C67.8703 37.3366 67.6957 37.4758 67.5589 37.6576C67.3075 37.9768 67.1821 38.4448 67.1821 39.0604C67.1821 39.6688 67.3075 40.132 67.5589 40.4512C67.6957 40.6336 67.8703 40.774 68.0833 40.873C68.2957 40.972 68.5315 41.0212 68.7901 41.0212C69.0415 41.0212 69.2749 40.972 69.4915 40.873C69.7081 40.774 69.8851 40.6336 70.0219 40.4512C70.2799 40.1092 70.4095 39.6454 70.4095 39.0604Z" fill="#223C7E"/>
<path d="M77.2057 37.909C77.1679 37.825 77.1181 37.7458 77.0575 37.6696C76.9201 37.4872 76.7443 37.3468 76.5271 37.2478C76.3105 37.1494 76.0765 37.0996 75.8257 37.0996C75.5749 37.0996 75.3427 37.1494 75.1303 37.2478C74.9173 37.3468 74.7427 37.4872 74.6059 37.6696C74.3623 37.9816 74.2333 38.4454 74.2183 39.061C74.2333 39.676 74.3623 40.1404 74.6059 40.4518C74.7427 40.6342 74.9173 40.7728 75.1303 40.8676C75.3427 40.9624 75.5749 41.0098 75.8257 41.0098C76.0765 41.0098 76.3123 40.9624 76.5325 40.8676C76.7533 40.7728 76.9279 40.6336 77.0575 40.4518C77.1253 40.3606 77.1709 40.285 77.1943 40.2238L78.4945 40.771C78.3727 40.9912 78.2581 41.1622 78.1525 41.2834C77.8789 41.6182 77.5351 41.8744 77.1205 42.0532C76.7059 42.232 76.2745 42.3136 75.8263 42.298C75.3697 42.313 74.9401 42.232 74.5381 42.0532C74.1349 41.8744 73.7929 41.6176 73.5115 41.2834C73.0177 40.6834 72.7705 39.9424 72.7705 39.0604C72.7705 38.1862 73.0177 37.441 73.5115 36.8248C73.7929 36.4906 74.1349 36.2374 74.5381 36.0664C74.9407 35.8954 75.3703 35.8096 75.8263 35.8096C76.2895 35.8096 76.7251 35.8972 77.1319 36.0724C77.5387 36.2476 77.8789 36.4984 78.1525 36.8248C78.2965 37.0078 78.4111 37.1866 78.4945 37.3612L77.2057 37.909Z" fill="#223C7E"/>
<path d="M85.1983 42.1386H83.8303V37.3494H81.0595V42.1386H79.6909V35.9814H85.1989V42.1386H85.1983Z" fill="#223C7E"/>
<path d="M88.2145 42.0472C87.8077 41.8726 87.4675 41.6176 87.1939 41.2834C86.7001 40.6834 86.4529 39.9424 86.4529 39.0604C86.4529 38.1634 86.7001 37.4182 87.1939 36.8248C87.4597 36.4984 87.8005 36.247 88.2145 36.0724C88.6285 35.8978 89.0641 35.8096 89.5201 35.8096C89.9839 35.8096 90.4189 35.8972 90.8263 36.0724C91.2331 36.247 91.5727 36.4984 91.8463 36.8248C92.3407 37.4254 92.5873 38.1706 92.5873 39.0604C92.5873 39.4936 92.5285 39.8926 92.4109 40.2574C92.2927 40.6222 92.1043 40.9648 91.8463 41.2834C91.5649 41.6182 91.2229 41.8726 90.8203 42.0472C90.4171 42.2224 89.9839 42.31 89.5201 42.31C89.0563 42.31 88.6207 42.2224 88.2145 42.0472ZM91.1395 39.0604C91.1395 38.4676 91.0099 37.9996 90.7519 37.6576C90.6223 37.4752 90.4477 37.3366 90.2275 37.2418C90.0073 37.147 89.7715 37.099 89.5201 37.099C89.2615 37.099 89.0263 37.147 88.8133 37.2418C88.6003 37.3366 88.4257 37.4758 88.2889 37.6576C88.0375 37.9768 87.9121 38.4448 87.9121 39.0604C87.9121 39.6688 88.0375 40.132 88.2889 40.4512C88.4257 40.6336 88.6003 40.774 88.8133 40.873C89.0257 40.972 89.2615 41.0212 89.5201 41.0212C89.7715 41.0212 90.0049 40.972 90.2215 40.873C90.4381 40.774 90.6151 40.6336 90.7519 40.4512C91.0099 40.1092 91.1395 39.6454 91.1395 39.0604Z" fill="#223C7E"/>
<path d="M98.8247 37.2012H96.7608V42.1386H95.3928V37.2012H93.3293V35.9814H98.8253V37.2012H98.8247Z" fill="#223C7E"/>
<path d="M105.649 37.8289C105.767 38.2165 105.826 38.6269 105.826 39.0607C105.826 39.9727 105.59 40.7294 105.119 41.3294C104.868 41.6414 104.552 41.8825 104.173 42.0535C103.792 42.2245 103.397 42.3103 102.986 42.3103C102.325 42.3103 101.758 42.1393 101.287 41.7973V44.8765H99.9072V35.9815H101.128V36.4489C101.378 36.2437 101.66 36.0865 101.971 35.9755C102.283 35.8657 102.606 35.8105 102.94 35.8105C103.373 35.8105 103.78 35.8945 104.16 36.0613C104.54 36.2287 104.86 36.4723 105.118 36.7915C105.355 37.0951 105.531 37.4407 105.649 37.8289ZM104.366 39.0607C104.366 38.4523 104.245 37.9771 104.002 37.6351C103.736 37.2403 103.314 37.0423 102.737 37.0423C102.5 37.0423 102.282 37.0837 102.081 37.1677C101.879 37.2517 101.71 37.3729 101.573 37.5325C101.421 37.7149 101.309 37.9393 101.236 38.2051C101.164 38.4709 101.128 38.7565 101.128 39.0607C101.128 39.3649 101.166 39.6518 101.242 39.9218C101.318 40.1918 101.428 40.4101 101.573 40.5775C101.861 40.9123 102.264 41.0791 102.781 41.0791C103.04 41.0791 103.277 41.0299 103.494 40.9309C103.71 40.8325 103.887 40.6843 104.024 40.4863C104.252 40.1659 104.366 39.6913 104.366 39.0607Z" fill="#223C7E"/>
<path d="M108.505 40.5196C108.642 40.7092 108.826 40.8562 109.058 40.9582C109.29 41.0608 109.539 41.1124 109.805 41.1124C110.192 41.1124 110.521 41.0398 110.792 40.8958C111.061 40.7512 111.318 40.531 111.561 40.234L112.565 40.9186C112.276 41.3518 111.905 41.692 111.452 41.9386C111 42.1858 110.474 42.3094 109.873 42.3094C109.402 42.3094 108.952 42.22 108.522 42.0418C108.092 41.863 107.744 41.6098 107.479 41.2828C107.236 40.9792 107.051 40.6432 106.926 40.2736C106.8 39.9052 106.738 39.523 106.738 39.1276C106.738 38.6794 106.8 38.2576 106.926 37.8622C107.051 37.4674 107.236 37.1212 107.479 36.8248C107.752 36.4984 108.092 36.247 108.499 36.0724C108.906 35.8978 109.341 35.8096 109.805 35.8096C110.261 35.8096 110.692 35.8972 111.099 36.0724C111.506 36.2476 111.85 36.4984 112.131 36.8248C112.625 37.4254 112.872 38.1664 112.872 39.0484C112.872 39.1552 112.864 39.322 112.849 39.55H108.152C108.205 39.9532 108.322 40.2766 108.505 40.5196ZM109.058 37.15C108.826 37.2526 108.642 37.399 108.505 37.5886C108.353 37.7938 108.247 38.041 108.186 38.3296H111.424C111.356 38.0482 111.245 37.8016 111.093 37.5886C110.956 37.399 110.774 37.252 110.546 37.15C110.318 37.0474 110.071 36.9958 109.805 36.9958C109.539 36.9958 109.29 37.0474 109.058 37.15Z" fill="#223C7E"/>
<path d="M118.078 36.6093C118.447 36.7689 118.753 37.0005 118.996 37.3047C119.224 37.5783 119.396 37.8957 119.514 38.2569C119.632 38.6181 119.691 38.9883 119.691 39.3687C119.699 39.7719 119.634 40.1559 119.497 40.5207C119.36 40.8849 119.159 41.2083 118.893 41.4897C118.612 41.7711 118.279 41.9817 117.895 42.1227C117.511 42.2637 117.11 42.3261 116.692 42.3105C116.281 42.3105 115.888 42.2283 115.512 42.0657C115.136 41.9025 114.814 41.6685 114.548 41.3643C114.298 41.0757 114.115 40.7595 114.001 40.4175C113.888 40.0761 113.822 39.6957 113.807 39.2775C113.792 38.9283 113.785 38.6697 113.785 38.5023C113.785 37.9473 113.822 37.4079 113.899 36.8835C113.975 36.3963 114.117 35.9517 114.326 35.5491C114.535 35.1459 114.826 34.8153 115.199 34.5573C115.54 34.3215 115.93 34.1577 116.367 34.0671C116.804 33.9759 117.289 33.9297 117.821 33.9297C118.247 33.9297 118.703 33.9711 119.189 34.0557V35.3205C118.597 35.2449 118.072 35.2071 117.616 35.2071C117.243 35.2071 116.916 35.2317 116.635 35.2809C116.353 35.3307 116.122 35.4237 115.94 35.5605C115.711 35.7129 115.546 35.9163 115.444 36.1707C115.341 36.4257 115.271 36.7239 115.232 37.0659C115.453 36.8535 115.708 36.6855 115.996 36.5643C116.285 36.4425 116.585 36.3777 116.897 36.3705C117.316 36.3693 117.709 36.4491 118.078 36.6093ZM116.111 37.7091C115.913 37.7895 115.75 37.9089 115.621 38.0685C115.378 38.3427 115.256 38.7417 115.256 39.2661C115.256 39.8055 115.378 40.2123 115.621 40.4859C115.75 40.6383 115.913 40.7541 116.111 40.8339C116.309 40.9137 116.522 40.9533 116.749 40.9533C116.977 40.9533 117.19 40.9137 117.388 40.8339C117.585 40.7541 117.749 40.6383 117.878 40.4859C118.121 40.2123 118.243 39.8097 118.243 39.2769C118.243 38.7447 118.121 38.3421 117.878 38.0679C117.748 37.9083 117.585 37.7889 117.388 37.7085C117.19 37.6287 116.977 37.5891 116.749 37.5891C116.522 37.5891 116.309 37.6293 116.111 37.7091Z" fill="#223C7E"/>
<path d="M126.453 35.9814V42.1392H125.085V39.6192H122.314V42.1392H120.946V35.9814H122.314V38.2392H125.085V35.9814H126.453Z" fill="#223C7E"/>
<path d="M131.938 42.139V41.329C131.641 41.6938 131.324 41.9488 130.985 42.0928C130.648 42.2368 130.231 42.3094 129.737 42.3094C129.122 42.3094 128.629 42.1384 128.26 41.7964C127.892 41.4544 127.707 40.9948 127.707 40.4164C127.707 40.006 127.793 39.6544 127.964 39.3616C128.135 39.0694 128.41 38.8354 128.791 38.6602C129.079 38.5312 129.424 38.4268 129.823 38.347C130.222 38.2672 130.71 38.1892 131.288 38.113L131.767 38.0452C131.729 37.7488 131.6 37.5184 131.379 37.3552C131.158 37.192 130.858 37.1104 130.478 37.1104C129.84 37.1104 129.307 37.3228 128.882 37.7488L128.072 36.8362C128.407 36.4942 128.779 36.2374 129.189 36.0664C129.6 35.8954 130.067 35.8096 130.592 35.8096C130.911 35.8096 131.228 35.869 131.544 35.9866C131.859 36.1042 132.128 36.262 132.348 36.46C132.872 36.9004 133.135 37.558 133.135 38.4322V42.1384H131.938V42.139ZM131.744 39.8416C131.766 39.655 131.778 39.418 131.778 39.1288C131.078 39.2506 130.513 39.361 130.079 39.46C129.775 39.5212 129.53 39.622 129.343 39.7618C129.157 39.9028 129.064 40.087 129.064 40.315C129.064 40.5586 129.157 40.7596 129.343 40.9198C129.53 41.0794 129.767 41.1586 130.056 41.1586C130.383 41.1586 130.678 41.0866 130.94 40.9426C131.203 40.798 131.41 40.6042 131.561 40.3606C131.66 40.201 131.721 40.0282 131.744 39.8416Z" fill="#223C7E"/>
<path d="M139.931 40.8381H140.456V42.9021H139.156V42.1383H135.347V42.9021H134.047V40.8381C134.351 40.8381 134.61 40.6713 134.823 40.3365C135.035 40.0017 135.184 39.4737 135.268 38.7513L135.586 35.9805H139.931V40.8381H139.931ZM138.631 37.2009H136.716L136.522 38.9001C136.423 39.8355 136.226 40.4817 135.929 40.8381H138.632V37.2009H138.631Z" fill="#223C7E"/>
<path d="M141.983 36.6373C142.159 36.4207 142.371 36.2515 142.622 36.1297C142.834 36.0235 143.082 35.9431 143.363 35.8903C143.644 35.8375 143.926 35.8105 144.206 35.8105C144.487 35.8105 144.772 35.8375 145.062 35.8903C145.351 35.9437 145.59 36.0241 145.78 36.1297C146.099 36.2899 146.346 36.5059 146.521 36.7795C146.696 37.0531 146.795 37.3723 146.818 37.7377C146.818 37.9807 146.785 38.1961 146.72 38.3821C146.656 38.5681 146.551 38.7415 146.407 38.9005C146.59 39.0529 146.726 39.2425 146.818 39.4705C146.909 39.6985 146.955 39.9457 146.955 40.2115C146.955 40.5919 146.856 40.9321 146.659 41.2321C146.461 41.5327 146.198 41.7733 145.871 41.9563C145.415 42.1843 144.86 42.2977 144.207 42.2977C143.515 42.2977 142.957 42.1843 142.531 41.9563C141.991 41.6827 141.645 41.2262 141.493 40.5877L142.839 40.2571C142.9 40.4773 143.026 40.6525 143.215 40.7815C143.451 40.9261 143.781 40.9981 144.207 40.9981C144.595 40.9981 144.921 40.9261 145.188 40.7815C145.317 40.7059 145.412 40.6219 145.473 40.5307C145.534 40.4395 145.564 40.3291 145.564 40.2001C145.564 39.8425 145.359 39.6301 144.949 39.5617C144.759 39.5239 144.515 39.5047 144.219 39.5047H143.626V38.4211H144.219C144.5 38.4211 144.724 38.3983 144.892 38.3527C145.097 38.3071 145.237 38.2387 145.313 38.1475C145.389 38.0563 145.427 37.9381 145.427 37.7935C145.427 37.6951 145.399 37.6021 145.341 37.5145C145.284 37.4269 145.206 37.3567 145.108 37.3033C144.871 37.1659 144.571 37.0975 144.206 37.0975C143.826 37.0975 143.526 37.1659 143.306 37.3033C143.207 37.3567 143.135 37.4155 143.089 37.4797C143.044 37.5445 143.013 37.6261 142.998 37.7251L141.641 37.3939C141.694 37.1065 141.809 36.8539 141.983 36.6373Z" fill="#223C7E"/>
<path d="M149.629 42.0472C149.222 41.8726 148.882 41.6176 148.609 41.2834C148.115 40.6834 147.868 39.9424 147.868 39.0604C147.868 38.1634 148.115 37.4182 148.609 36.8248C148.874 36.4984 149.215 36.247 149.629 36.0724C150.043 35.8978 150.479 35.8096 150.935 35.8096C151.399 35.8096 151.834 35.8972 152.241 36.0724C152.648 36.247 152.987 36.4984 153.261 36.8248C153.755 37.4254 154.002 38.1706 154.002 39.0604C154.002 39.4936 153.943 39.8926 153.826 40.2574C153.707 40.6222 153.519 40.9648 153.261 41.2834C152.98 41.6182 152.638 41.8726 152.235 42.0472C151.832 42.2224 151.399 42.31 150.935 42.31C150.471 42.31 150.036 42.2224 149.629 42.0472ZM152.554 39.0604C152.554 38.4676 152.425 37.9996 152.167 37.6576C152.037 37.4752 151.862 37.3366 151.642 37.2418C151.422 37.147 151.186 37.099 150.935 37.099C150.676 37.099 150.441 37.147 150.228 37.2418C150.015 37.3366 149.84 37.4758 149.704 37.6576C149.452 37.9768 149.327 38.4448 149.327 39.0604C149.327 39.6688 149.452 40.132 149.704 40.4512C149.84 40.6336 150.015 40.774 150.228 40.873C150.44 40.972 150.676 41.0212 150.935 41.0212C151.186 41.0212 151.42 40.972 151.636 40.873C151.853 40.774 152.03 40.6336 152.167 40.4512C152.425 40.1092 152.554 39.6454 152.554 39.0604Z" fill="#223C7E"/>
<path d="M160.997 37.8289C161.115 38.2165 161.174 38.6269 161.174 39.0607C161.174 39.9727 160.938 40.7294 160.467 41.3294C160.216 41.6414 159.901 41.8825 159.521 42.0535C159.14 42.2245 158.745 42.3103 158.335 42.3103C157.673 42.3103 157.106 42.1393 156.635 41.7973V44.8765H155.255V35.9815H156.476V36.4489C156.727 36.2437 157.008 36.0865 157.319 35.9755C157.631 35.8657 157.954 35.8105 158.288 35.8105C158.722 35.8105 159.128 35.8945 159.508 36.0613C159.889 36.2287 160.208 36.4723 160.466 36.7915C160.703 37.0951 160.879 37.4407 160.997 37.8289ZM159.715 39.0607C159.715 38.4523 159.593 37.9771 159.35 37.6351C159.084 37.2403 158.662 37.0423 158.085 37.0423C157.849 37.0423 157.63 37.0837 157.429 37.1677C157.228 37.2517 157.058 37.3729 156.922 37.5325C156.769 37.7149 156.658 37.9393 156.584 38.2051C156.512 38.4709 156.476 38.7565 156.476 39.0607C156.476 39.3649 156.514 39.6518 156.59 39.9218C156.666 40.1918 156.776 40.4101 156.921 40.5775C157.209 40.9123 157.612 41.0791 158.129 41.0791C158.388 41.0791 158.626 41.0299 158.842 40.9309C159.058 40.8325 159.235 40.6843 159.373 40.4863C159.601 40.1659 159.715 39.6913 159.715 39.0607Z" fill="#223C7E"/>
<path d="M166.317 42.139V41.329C166.021 41.6938 165.704 41.9488 165.365 42.0928C165.027 42.2368 164.611 42.3094 164.116 42.3094C163.501 42.3094 163.008 42.1384 162.64 41.7964C162.271 41.4544 162.086 40.9948 162.086 40.4164C162.086 40.006 162.172 39.6544 162.343 39.3616C162.514 39.0694 162.79 38.8354 163.17 38.6602C163.459 38.5312 163.803 38.4268 164.202 38.347C164.602 38.2672 165.089 38.1892 165.667 38.113L166.146 38.0452C166.108 37.7488 165.979 37.5184 165.758 37.3552C165.538 37.192 165.238 37.1104 164.857 37.1104C164.219 37.1104 163.687 37.3228 163.261 37.7488L162.451 36.8362C162.786 36.4942 163.159 36.2374 163.568 36.0664C163.979 35.8954 164.447 35.8096 164.971 35.8096C165.29 35.8096 165.608 35.869 165.923 35.9866C166.238 36.1042 166.507 36.262 166.727 36.46C167.252 36.9004 167.515 37.558 167.515 38.4322V42.1384H166.317V42.139ZM166.123 39.8416C166.145 39.655 166.157 39.418 166.157 39.1288C165.458 39.2506 164.892 39.361 164.458 39.46C164.154 39.5212 163.909 39.622 163.723 39.7618C163.536 39.9028 163.443 40.087 163.443 40.315C163.443 40.5586 163.536 40.7596 163.723 40.9198C163.909 41.0794 164.146 41.1586 164.435 41.1586C164.762 41.1586 165.057 41.0866 165.32 40.9426C165.582 40.798 165.789 40.6042 165.941 40.3606C166.04 40.201 166.1 40.0282 166.123 39.8416Z" fill="#223C7E"/>
</svg>
